<svg xmlns:dc="http://purl.org/dc/elements/1.1/" xmlns:cc="http://creativecommons.org/ns#" xmlns:rdf="http://www.w3.org/1999/02/22-rdf-syntax-ns#" xmlns:svg="http://www.w3.org/2000/svg" xmlns="http://www.w3.org/2000/svg" xmlns:sodipodi="http://sodipodi.sourceforge.net/DTD/sodipodi-0.dtd" xmlns:inkscape="http://www.inkscape.org/namespaces/inkscape" version="1.1" x="0px" y="0px" viewBox="0 0 100 100"><g transform="translate(0,-952.36218)"><path style="text-indent:0;text-transform:none;direction:ltr;block-progression:tb;baseline-shift:baseline;color:#000000;enable-background:accumulate;" d="m 35.989836,958.3934 c -4.395689,0 -7.996877,3.60131 -7.996877,7.99716 l 0,38.17394 c -10.157656,1.4643 -18.024209,10.2536 -18.024209,20.8052 0,11.5702 9.453267,21.0237 21.023038,21.0237 9.849795,0 18.146185,-6.8519 20.398282,-16.0255 l 30.581804,0 c 4.395689,0 7.996876,-3.6013 7.996876,-7.9972 l 0,-43.98439 c 0,-4.39585 -3.601187,-7.99717 -7.996876,-7.99717 l -1.999219,0 0,-3.99858 c 0,-4.39585 -3.601188,-7.99716 -7.996876,-7.99716 l -35.985943,0 z m 0,3.99858 35.985943,0 c 2.249715,0 3.998438,1.74879 3.998438,3.99858 l 0,45.98374 c 0,2.2498 -1.748723,3.9986 -3.998438,3.9986 l -22.022648,0 c -1.284508,-2.6882 -3.128215,-5.0841 -5.372901,-6.9976 l 25.396329,0 a 1.9994195,1.9994911 0 1 0 0,-3.9985 l -31.987504,0 a 1.9994195,1.9994911 0 0 0 -0.187427,0 2.0014143,2.001486 0 0 0 -0.249903,0.031 c -1.764331,-0.5819 -3.627288,-0.9406 -5.560328,-1.0308 l 0,-37.98654 c 0,-2.24979 1.748723,-3.99858 3.998439,-3.99858 z m 1.811792,6.99752 a 2.0014143,2.001486 0 1 0 0.187427,3.99858 l 31.987504,0 a 1.9994195,1.9994911 0 1 0 0,-3.99858 l -31.987504,0 a 1.9994195,1.9994911 0 0 0 -0.187427,0 z m 42.171027,4.99823 1.999219,0 c 2.249715,0 3.998438,1.74879 3.998438,3.99858 l 0,43.98439 c 0,2.2498 -1.748723,3.9986 -3.998438,3.9986 l -29.988286,0 c 0.01525,-0.327 0.03124,-0.6691 0.03124,-0.9996 0,-1.7201 -0.231494,-3.3963 -0.624756,-4.9983 l 20.585709,0 c 4.395688,0 7.996876,-3.6013 7.996876,-7.9971 l 0,-37.98657 z m -39.172199,6.99751 a 2.0014143,2.001486 0 1 0 0.187427,3.99858 l 25.989848,0 a 1.9994195,1.9994911 0 1 0 0,-3.99858 l -25.989848,0 a 1.9994195,1.9994911 0 0 0 -0.187427,0 z m 0,11.99575 a 2.0014143,2.001486 0 1 0 0.187427,3.99858 l 25.989848,0 a 1.9994195,1.9994911 0 1 0 0,-3.99858 l -25.989848,0 a 1.9994195,1.9994911 0 0 0 -0.187427,0 z m -9.808668,15.02591 c 9.408855,0 16.962124,7.5536 16.962124,16.9628 0,9.4091 -7.553269,16.9626 -16.962124,16.9626 -9.408855,0 -16.962124,-7.5535 -16.962124,-16.9626 0,-9.4092 7.553269,-16.9628 16.962124,-16.9628 z m 0,4.967 c -6.601194,0 -11.995314,5.3943 -11.995314,11.9958 0,6.6014 5.39412,11.9957 11.995314,11.9957 6.601193,0 11.995314,-5.3943 11.995314,-11.9957 0,-6.6015 -5.394121,-11.9958 -11.995314,-11.9958 z m 0,3.9986 c 4.440276,0 7.996876,3.5567 7.996876,7.9972 0,4.4404 -3.5566,7.9971 -7.996876,7.9971 -4.440277,0 -7.996876,-3.5567 -7.996876,-7.9971 0,-4.4405 3.556599,-7.9972 7.996876,-7.9972 z m -0.218665,1.968 a 1.999419,1.9994906 0 0 0 -1.780554,2.0306 l 0,3.9986 a 1.999419,1.9994906 0 0 0 1.999219,1.9992 l 2.998828,0 a 1.999419,1.9994906 0 1 0 0,-3.9985 l -0.999609,0 0,-1.9993 a 1.999419,1.9994906 0 0 0 -2.217884,-2.0306 z" fill="#000000" fill-opacity="1" stroke="none" marker="none" visibility="visible" display="inline" overflow="visible"></path></g></svg>